<?xml version="1.0" encoding="UTF-8"?>
<svg xmlns="http://www.w3.org/2000/svg" xmlns:xlink="http://www.w3.org/1999/xlink" width="800px" height="800px" viewBox="0 0 800 800" version="1.1">
<g id="surface1">
<path style="fill-rule:evenodd;fill:rgb(100%,100%,100%);fill-opacity:1;stroke-width:1.5;stroke-linecap:butt;stroke-linejoin:round;stroke:rgb(0%,0%,0%);stroke-opacity:1;stroke-miterlimit:4;" d="M 9 36 C 12.389941 35.029907 19.110059 36.430005 22.5 34.000049 C 25.889941 36.430005 32.610059 35.029907 36 36 C 36 36 37.649927 36.540088 38.999927 37.999951 C 38.320093 38.970044 37.35 38.990039 36 38.500049 C 32.610059 37.529956 25.889941 38.959937 22.5 37.500073 C 19.110059 38.959937 12.389941 37.529956 9 38.500049 C 7.65 38.990039 6.679907 38.970044 6.000073 37.999951 C 7.350073 36.540088 9 36 9 36 Z M 9 36 " transform="matrix(17.777778,0,0,17.777778,0,0)"/>
<path style="fill-rule:evenodd;fill:rgb(100%,100%,100%);fill-opacity:1;stroke-width:1.5;stroke-linecap:butt;stroke-linejoin:round;stroke:rgb(0%,0%,0%);stroke-opacity:1;stroke-miterlimit:4;" d="M 15.000073 32.000098 C 17.499902 34.499927 27.500098 34.499927 29.999927 32.000098 C 30.500024 30.500024 29.999927 29.999927 29.999927 29.999927 C 29.999927 27.500098 27.500098 26.000024 27.500098 26.000024 C 33.000073 24.499951 33.499951 14.499976 22.5 10.500073 C 11.500049 14.499976 11.999927 24.499951 17.499902 26.000024 C 17.499902 26.000024 15.000073 27.500098 15.000073 29.999927 C 15.000073 29.999927 14.499976 30.500024 15.000073 32.000098 Z M 15.000073 32.000098 " transform="matrix(17.777778,0,0,17.777778,0,0)"/>
<path style="fill-rule:evenodd;fill:rgb(100%,100%,100%);fill-opacity:1;stroke-width:1.5;stroke-linecap:butt;stroke-linejoin:round;stroke:rgb(0%,0%,0%);stroke-opacity:1;stroke-miterlimit:4;" d="M 25.000049 8.000024 C 25.000049 9.380786 23.880762 10.500073 22.5 10.500073 C 21.119238 10.500073 19.999951 9.380786 19.999951 8.000024 C 19.999951 6.619263 21.119238 5.499976 22.5 5.499976 C 23.880762 5.499976 25.000049 6.619263 25.000049 8.000024 Z M 25.000049 8.000024 " transform="matrix(17.777778,0,0,17.777778,0,0)"/>
<path style="fill:none;stroke-width:1.5;stroke-linecap:round;stroke-linejoin:miter;stroke:rgb(0%,0%,0%);stroke-opacity:1;stroke-miterlimit:4;" d="M 17.499902 26.000024 L 27.500098 26.000024 M 15.000073 29.999927 L 29.999927 29.999927 M 22.5 15.499951 L 22.5 20.500049 M 19.999951 18 L 25.000049 18 " transform="matrix(17.777778,0,0,17.777778,0,0)"/>
</g>
</svg>
