<?xml version="1.0" encoding="UTF-8"?>
<svg xmlns="http://www.w3.org/2000/svg" xmlns:xlink="http://www.w3.org/1999/xlink" width="800px" height="800px" viewBox="0 0 800 800" version="1.1">
<g id="surface1">
<path style="fill-rule:evenodd;fill:rgb(100%,100%,100%);fill-opacity:1;stroke-width:1.5;stroke-linecap:butt;stroke-linejoin:round;stroke:rgb(0%,0%,0%);stroke-opacity:1;stroke-miterlimit:4;" d="M 8.999999 35.999995 C 12.390379 35.029902 19.109616 36.42956 22.499997 34.000483 C 25.890377 36.42956 32.609615 35.029902 35.999995 35.999995 C 35.999995 35.999995 37.650141 36.540522 39.000361 37.999506 C 38.320307 38.969599 37.350214 38.990473 35.999995 38.500483 C 32.609615 37.53039 25.890377 38.959711 22.499997 37.499628 C 19.109616 38.959711 12.390379 37.53039 8.999999 38.500483 C 7.649779 38.990473 6.679687 38.969599 5.999633 37.999506 C 7.349852 36.540522 8.999999 35.999995 8.999999 35.999995 Z M 8.999999 35.999995 " transform="matrix(17.77778,0,0,17.77778,0,0)"/>
<path style="fill-rule:evenodd;fill:rgb(100%,100%,100%);fill-opacity:1;stroke-width:1.5;stroke-linecap:butt;stroke-linejoin:round;stroke:rgb(0%,0%,0%);stroke-opacity:1;stroke-miterlimit:4;" d="M 14.999632 31.999873 C 17.50012 34.500361 27.499874 34.500361 30.000362 31.999873 C 30.50024 30.50024 30.000362 30.000362 30.000362 30.000362 C 30.000362 27.499874 27.499874 26.00024 27.499874 26.00024 C 32.999629 24.499508 33.499507 14.499754 22.499997 10.499632 C 11.500487 14.499754 12.000365 24.499508 17.50012 26.00024 C 17.50012 26.00024 14.999632 27.499874 14.999632 30.000362 C 14.999632 30.000362 14.499754 30.50024 14.999632 31.999873 Z M 14.999632 31.999873 " transform="matrix(17.77778,0,0,17.77778,0,0)"/>
<path style="fill-rule:evenodd;fill:rgb(100%,100%,100%);fill-opacity:1;stroke-width:1.5;stroke-linecap:butt;stroke-linejoin:round;stroke:rgb(0%,0%,0%);stroke-opacity:1;stroke-miterlimit:4;" d="M 25.000485 8.000243 C 25.000485 9.381224 23.880978 10.499632 22.499997 10.499632 C 21.119016 10.499632 19.999509 9.381224 19.999509 8.000243 C 19.999509 6.619262 21.119016 5.499755 22.499997 5.499755 C 23.880978 5.499755 25.000485 6.619262 25.000485 8.000243 Z M 25.000485 8.000243 " transform="matrix(17.77778,0,0,17.77778,0,0)"/>
<path style="fill:none;stroke-width:1.5;stroke-linecap:round;stroke-linejoin:miter;stroke:rgb(0%,0%,0%);stroke-opacity:1;stroke-miterlimit:4;" d="M 17.50012 26.00024 L 27.499874 26.00024 M 14.999632 30.000362 L 30.000362 30.000362 M 22.499997 15.49951 L 22.499997 20.500485 M 19.999509 17.999997 L 25.000485 17.999997 " transform="matrix(17.77778,0,0,17.77778,0,0)"/>
</g>
</svg>
