<?xml version="1.0" encoding="UTF-8"?>
<svg xmlns="http://www.w3.org/2000/svg" xmlns:xlink="http://www.w3.org/1999/xlink" width="800px" height="800px" viewBox="0 0 800 800" version="1.1">
<g id="surface1">
<path style="fill:none;stroke-width:1.5;stroke-linecap:round;stroke-linejoin:miter;stroke:rgb(0%,0%,0%);stroke-opacity:1;stroke-miterlimit:4;" d="M 22.5 11.629907 L 22.5 6.000073 " transform="matrix(17.777778,0,0,17.777778,0,0)"/>
<path style="fill-rule:evenodd;fill:rgb(0%,0%,0%);fill-opacity:1;stroke-width:1.5;stroke-linecap:butt;stroke-linejoin:miter;stroke:rgb(0%,0%,0%);stroke-opacity:1;stroke-miterlimit:4;" d="M 22.5 25.000049 C 22.5 25.000049 27 17.499902 25.499927 14.499976 C 25.499927 14.499976 24.499951 11.999927 22.5 11.999927 C 20.500049 11.999927 19.500073 14.499976 19.500073 14.499976 C 18 17.499902 22.5 25.000049 22.5 25.000049 " transform="matrix(17.777778,0,0,17.777778,0,0)"/>
<path style="fill-rule:evenodd;fill:rgb(0%,0%,0%);fill-opacity:1;stroke-width:1.5;stroke-linecap:round;stroke-linejoin:round;stroke:rgb(0%,0%,0%);stroke-opacity:1;stroke-miterlimit:4;" d="M 12.500024 36.999976 C 18 40.5 27 40.5 32.499976 36.999976 L 32.499976 29.999927 C 32.499976 29.999927 41.499976 25.499927 38.500049 19.500073 C 34.499927 12.999902 25.000049 16.000049 22.5 23.499976 L 22.5 27 L 22.5 23.499976 C 19.999951 16.000049 10.500073 12.999902 6.499951 19.500073 C 3.500024 25.499927 12.500024 29.999927 12.500024 29.999927 L 12.500024 36.999976 " transform="matrix(17.777778,0,0,17.777778,0,0)"/>
<path style="fill:none;stroke-width:1.5;stroke-linecap:round;stroke-linejoin:miter;stroke:rgb(0%,0%,0%);stroke-opacity:1;stroke-miterlimit:4;" d="M 19.999951 8.000024 L 25.000049 8.000024 " transform="matrix(17.777778,0,0,17.777778,0,0)"/>
<path style="fill:none;stroke-width:1.5;stroke-linecap:round;stroke-linejoin:round;stroke:rgb(100%,100%,100%);stroke-opacity:1;stroke-miterlimit:4;" d="M 32.000098 29.500049 C 32.000098 29.500049 40.5 25.499927 38.030054 19.850098 C 34.149902 14.000098 25.000049 18 22.5 24.499951 L 22.5 26.600098 L 22.5 24.499951 C 19.999951 18 10.850098 14.000098 6.969946 19.850098 C 4.5 25.499927 12.999902 29.500049 12.999902 29.500049 " transform="matrix(17.777778,0,0,17.777778,0,0)"/>
<path style="fill:none;stroke-width:1.5;stroke-linecap:round;stroke-linejoin:round;stroke:rgb(100%,100%,100%);stroke-opacity:1;stroke-miterlimit:4;" d="M 12.500024 29.999927 C 18 27 27 27 32.499976 29.999927 M 12.500024 33.499951 C 18 30.500024 27 30.500024 32.499976 33.499951 M 12.500024 36.999976 C 18 34.000049 27 34.000049 32.499976 36.999976 " transform="matrix(17.777778,0,0,17.777778,0,0)"/>
</g>
</svg>
