<?xml version="1.0" encoding="UTF-8"?>
<svg xmlns="http://www.w3.org/2000/svg" xmlns:xlink="http://www.w3.org/1999/xlink" width="800px" height="800px" viewBox="0 0 800 800" version="1.1">
<g id="surface1">
<path style="fill:none;stroke-width:1.5;stroke-linecap:round;stroke-linejoin:miter;stroke:rgb(0%,0%,0%);stroke-opacity:1;stroke-miterlimit:4;" d="M 22.499997 11.630125 L 22.499997 5.999633 " transform="matrix(17.77778,0,0,17.77778,0,0)"/>
<path style="fill:none;stroke-width:1.5;stroke-linecap:round;stroke-linejoin:miter;stroke:rgb(0%,0%,0%);stroke-opacity:1;stroke-miterlimit:4;" d="M 19.999509 8.000243 L 25.000485 8.000243 " transform="matrix(17.77778,0,0,17.77778,0,0)"/>
<path style="fill-rule:evenodd;fill:rgb(100%,100%,100%);fill-opacity:1;stroke-width:1.5;stroke-linecap:butt;stroke-linejoin:miter;stroke:rgb(0%,0%,0%);stroke-opacity:1;stroke-miterlimit:4;" d="M 22.499997 25.000485 C 22.499997 25.000485 26.999996 17.50012 25.500363 14.499754 C 25.500363 14.499754 24.499508 12.000365 22.499997 12.000365 C 20.500485 12.000365 19.499631 14.499754 19.499631 14.499754 C 17.999997 17.50012 22.499997 25.000485 22.499997 25.000485 " transform="matrix(17.77778,0,0,17.77778,0,0)"/>
<path style="fill-rule:evenodd;fill:rgb(100%,100%,100%);fill-opacity:1;stroke-width:1.5;stroke-linecap:round;stroke-linejoin:round;stroke:rgb(0%,0%,0%);stroke-opacity:1;stroke-miterlimit:4;" d="M 12.500242 36.999751 C 17.999997 40.499994 26.999996 40.499994 32.499751 36.999751 L 32.499751 30.000362 C 32.499751 30.000362 41.49975 25.500363 38.500483 19.499631 C 34.500361 13.00012 25.000485 16.000486 22.499997 23.499753 L 22.499997 26.999996 L 22.499997 23.499753 C 19.999509 16.000486 10.499632 13.00012 6.499511 19.499631 C 3.500244 25.500363 12.500242 30.000362 12.500242 30.000362 L 12.500242 36.999751 " transform="matrix(17.77778,0,0,17.77778,0,0)"/>
<path style="fill:none;stroke-width:1.5;stroke-linecap:round;stroke-linejoin:round;stroke:rgb(0%,0%,0%);stroke-opacity:1;stroke-miterlimit:4;" d="M 12.500242 30.000362 C 17.999997 26.999996 26.999996 26.999996 32.499751 30.000362 " transform="matrix(17.77778,0,0,17.77778,0,0)"/>
<path style="fill:none;stroke-width:1.5;stroke-linecap:round;stroke-linejoin:round;stroke:rgb(0%,0%,0%);stroke-opacity:1;stroke-miterlimit:4;" d="M 12.500242 33.499507 C 17.999997 30.50024 26.999996 30.50024 32.499751 33.499507 " transform="matrix(17.77778,0,0,17.77778,0,0)"/>
<path style="fill:none;stroke-width:1.5;stroke-linecap:round;stroke-linejoin:round;stroke:rgb(0%,0%,0%);stroke-opacity:1;stroke-miterlimit:4;" d="M 12.500242 36.999751 C 17.999997 34.000483 26.999996 34.000483 32.499751 36.999751 " transform="matrix(17.77778,0,0,17.77778,0,0)"/>
</g>
</svg>
