<?xml version="1.0" encoding="UTF-8"?>
<svg xmlns="http://www.w3.org/2000/svg" xmlns:xlink="http://www.w3.org/1999/xlink" width="800px" height="800px" viewBox="0 0 800 800" version="1.1">
<g id="surface1">
<path style="fill-rule:evenodd;fill:rgb(0%,0%,0%);fill-opacity:1;stroke-width:1.5;stroke-linecap:round;stroke-linejoin:round;stroke:rgb(0%,0%,0%);stroke-opacity:1;stroke-miterlimit:4;" d="M 21.999902 9.999976 C 32.499976 10.999951 38.500049 18 37.999951 38.999927 L 15.000073 38.999927 C 15.000073 29.999927 25.000049 32.499976 23.000098 18 " transform="matrix(17.777778,0,0,17.777778,0,0)"/>
<path style="fill-rule:evenodd;fill:rgb(0%,0%,0%);fill-opacity:1;stroke-width:1.5;stroke-linecap:round;stroke-linejoin:round;stroke:rgb(0%,0%,0%);stroke-opacity:1;stroke-miterlimit:4;" d="M 24.000073 18 C 24.37998 20.910059 18.45 25.370068 16.000049 27 C 12.999902 28.999951 13.180078 31.340039 10.999951 30.999902 C 9.958008 30.059912 12.409937 27.959985 10.999951 27.999976 C 9.999976 27.999976 11.190015 29.230005 9.999976 29.999927 C 9 29.999927 5.996997 30.999902 6.000073 26.000024 C 6.000073 24.000073 11.999927 14.000098 11.999927 14.000098 C 11.999927 14.000098 13.890015 12.099902 14.000098 10.500073 C 13.269946 9.50603 13.5 8.499902 13.5 7.499927 C 14.499976 6.499951 16.499927 9.999976 16.499927 9.999976 L 18.500098 9.999976 C 18.500098 9.999976 19.279907 8.007935 20.999927 7.000049 C 21.999902 7.000049 21.999902 9.999976 21.999902 9.999976 " transform="matrix(17.777778,0,0,17.777778,0,0)"/>
<path style="fill-rule:evenodd;fill:rgb(100%,100%,100%);fill-opacity:1;stroke-width:1.5;stroke-linecap:round;stroke-linejoin:round;stroke:rgb(100%,100%,100%);stroke-opacity:1;stroke-miterlimit:4;" d="M 9.500098 25.499927 C 9.500098 25.776123 9.276196 26.000024 9 26.000024 C 8.723804 26.000024 8.499902 25.776123 8.499902 25.499927 C 8.499902 25.22395 8.723804 25.000049 9 25.000049 C 9.276196 25.000049 9.500098 25.22395 9.500098 25.499927 Z M 9.500098 25.499927 " transform="matrix(17.777778,0,0,17.777778,0,0)"/>
<path style="fill-rule:evenodd;fill:rgb(100%,100%,100%);fill-opacity:1;stroke-width:1.5;stroke-linecap:round;stroke-linejoin:round;stroke:rgb(100%,100%,100%);stroke-opacity:1;stroke-miterlimit:4;" d="M 15.000049 15.499971 C 15.000069 16.328375 14.776064 16.99992 14.50003 16.999953 C 14.223805 17.000097 13.99988 16.328371 13.99986 15.499968 C 14.00003 14.671455 14.223845 14.000019 14.499879 13.999986 C 14.776214 14.000033 15.000029 14.671568 15.000049 15.499971 Z M 15.000049 15.499971 " transform="matrix(15.395555,8.888889,-8.888889,15.395555,172.319997,-91.964442)"/>
<path style=" stroke:none;fill-rule:evenodd;fill:rgb(100%,100%,100%);fill-opacity:1;" d="M 436.445312 184.890625 L 428.445312 210.667969 L 437.332031 213.332031 C 493.332031 231.109375 537.777344 257.601562 577.777344 333.332031 C 617.777344 409.066406 635.554688 516.621094 626.667969 693.332031 L 625.777344 702.222656 L 665.777344 702.222656 L 666.667969 693.332031 C 675.554688 514.488281 651.023438 393.777344 608.890625 313.957031 C 566.753906 234.132812 505.957031 195.910156 445.511719 186.667969 Z M 436.445312 184.890625 "/>
</g>
</svg>
