<?xml version="1.0" encoding="UTF-8"?>
<svg xmlns="http://www.w3.org/2000/svg" xmlns:xlink="http://www.w3.org/1999/xlink" width="800px" height="800px" viewBox="0 0 800 800" version="1.1">
<g id="surface1">
<path style="fill-rule:nonzero;fill:rgb(100%,100%,100%);fill-opacity:1;stroke-width:1.5;stroke-linecap:round;stroke-linejoin:miter;stroke:rgb(0%,0%,0%);stroke-opacity:1;stroke-miterlimit:4;" d="M 22.499997 8.999999 C 20.289548 8.999999 18.499875 10.789671 18.499875 13.00012 C 18.499875 13.890013 18.789914 14.709593 19.279904 15.379759 C 17.329832 16.500364 16.000486 18.589963 16.000486 21.000363 C 16.000486 23.029538 16.939817 24.840084 18.409787 26.029904 C 15.41052 27.090084 10.99951 31.580196 10.99951 39.500239 L 34.000483 39.500239 C 34.000483 31.580196 29.589473 27.090084 26.590206 26.029904 C 28.060177 24.840084 28.999508 23.029538 28.999508 21.000363 C 28.999508 18.589963 27.670162 16.500364 25.720089 15.379759 C 26.210079 14.709593 26.500118 13.890013 26.500118 13.00012 C 26.500118 10.789671 24.710446 8.999999 22.499997 8.999999 Z M 22.499997 8.999999 " transform="matrix(17.77778,0,0,17.77778,0,0)"/>
</g>
</svg>
