<?xml version="1.0" encoding="UTF-8"?>
<svg xmlns="http://www.w3.org/2000/svg" xmlns:xlink="http://www.w3.org/1999/xlink" width="800px" height="800px" viewBox="0 0 800 800" version="1.1">
<g id="surface1">
<path style="fill-rule:nonzero;fill:rgb(100%,100%,100%);fill-opacity:1;stroke-width:1.5;stroke-linecap:round;stroke-linejoin:miter;stroke:rgb(0%,0%,0%);stroke-opacity:1;stroke-miterlimit:4;" d="M 22.5 9 C 20.28999 9 18.500098 10.789893 18.500098 12.999902 C 18.500098 13.890015 18.789917 14.710034 19.279907 15.37998 C 17.330054 16.499927 16.000049 18.589966 16.000049 20.999927 C 16.000049 23.02998 16.940039 24.840088 18.41001 26.029907 C 15.410083 27.090088 10.999951 31.57998 10.999951 39.500024 L 34.000049 39.500024 C 34.000049 31.57998 29.589917 27.090088 26.58999 26.029907 C 28.059961 24.840088 28.999951 23.02998 28.999951 20.999927 C 28.999951 18.589966 27.669946 16.499927 25.720093 15.37998 C 26.210083 14.710034 26.499902 13.890015 26.499902 12.999902 C 26.499902 10.789893 24.71001 9 22.5 9 Z M 22.5 9 " transform="matrix(17.777778,0,0,17.777778,0,0)"/>
</g>
</svg>
