<?xml version="1.0" encoding="UTF-8"?>
<svg xmlns="http://www.w3.org/2000/svg" xmlns:xlink="http://www.w3.org/1999/xlink" width="800px" height="800px" viewBox="0 0 800 800" version="1.1">
<g id="surface1">
<path style="fill-rule:nonzero;fill:rgb(100%,100%,100%);fill-opacity:1;stroke-width:1.5;stroke-linecap:butt;stroke-linejoin:round;stroke:rgb(0%,0%,0%);stroke-opacity:1;stroke-miterlimit:4;" d="M 8.999999 26.00024 C 17.50012 24.499508 30.000362 24.499508 35.999995 26.00024 L 38.500483 13.499998 L 31.000118 25.000485 L 30.700191 10.899535 L 25.500363 24.499508 L 22.499997 9.999754 L 19.499631 24.499508 L 14.299803 10.899535 L 13.999876 25.000485 L 6.499511 13.499998 Z M 8.999999 26.00024 " transform="matrix(17.77778,0,0,17.77778,0,0)"/>
<path style="fill-rule:nonzero;fill:rgb(100%,100%,100%);fill-opacity:1;stroke-width:1.5;stroke-linecap:butt;stroke-linejoin:round;stroke:rgb(0%,0%,0%);stroke-opacity:1;stroke-miterlimit:4;" d="M 8.999999 26.00024 C 8.999999 27.999752 10.499632 27.999752 11.500487 30.000362 C 12.500242 31.499996 12.500242 31.000118 12.000365 33.499507 C 10.499632 34.500361 10.99951 35.999995 10.99951 35.999995 C 9.499877 37.499628 10.99951 38.500483 10.99951 38.500483 C 17.50012 39.500239 27.499874 39.500239 34.000483 38.500483 C 34.000483 38.500483 35.500117 37.499628 34.000483 35.999995 C 34.000483 35.999995 34.500361 34.500361 32.999629 33.499507 C 32.499751 31.000118 32.499751 31.499996 33.499507 30.000362 C 34.500361 27.999752 35.999995 27.999752 35.999995 26.00024 C 27.499874 24.499508 17.50012 24.499508 8.999999 26.00024 Z M 8.999999 26.00024 " transform="matrix(17.77778,0,0,17.77778,0,0)"/>
<path style="fill:none;stroke-width:1.5;stroke-linecap:butt;stroke-linejoin:round;stroke:rgb(0%,0%,0%);stroke-opacity:1;stroke-miterlimit:4;" d="M 11.500487 30.000362 C 14.999632 28.999508 30.000362 28.999508 33.499507 30.000362 " transform="matrix(17.77778,0,0,17.77778,0,0)"/>
<path style="fill:none;stroke-width:1.5;stroke-linecap:butt;stroke-linejoin:round;stroke:rgb(0%,0%,0%);stroke-opacity:1;stroke-miterlimit:4;" d="M 12.000365 33.499507 C 17.999997 32.499751 26.999996 32.499751 32.999629 33.499507 " transform="matrix(17.77778,0,0,17.77778,0,0)"/>
<path style="fill-rule:nonzero;fill:rgb(100%,100%,100%);fill-opacity:1;stroke-width:1.5;stroke-linecap:butt;stroke-linejoin:round;stroke:rgb(0%,0%,0%);stroke-opacity:1;stroke-miterlimit:4;" d="M 8.000243 12.000365 C 8.000243 13.10449 7.104857 13.999876 5.999633 13.999876 C 4.895507 13.999876 4.000122 13.10449 4.000122 12.000365 C 4.000122 10.89514 4.895507 9.999754 5.999633 9.999754 C 7.104857 9.999754 8.000243 10.89514 8.000243 12.000365 Z M 8.000243 12.000365 " transform="matrix(17.77778,0,0,17.77778,0,0)"/>
<path style="fill-rule:nonzero;fill:rgb(100%,100%,100%);fill-opacity:1;stroke-width:1.5;stroke-linecap:butt;stroke-linejoin:round;stroke:rgb(0%,0%,0%);stroke-opacity:1;stroke-miterlimit:4;" d="M 16.000486 8.999999 C 16.000486 10.104125 15.1051 10.99951 13.999876 10.99951 C 12.89575 10.99951 12.000365 10.104125 12.000365 8.999999 C 12.000365 7.895873 12.89575 7.000487 13.999876 7.000487 C 15.1051 7.000487 16.000486 7.895873 16.000486 8.999999 Z M 16.000486 8.999999 " transform="matrix(17.77778,0,0,17.77778,0,0)"/>
<path style="fill-rule:nonzero;fill:rgb(100%,100%,100%);fill-opacity:1;stroke-width:1.5;stroke-linecap:butt;stroke-linejoin:round;stroke:rgb(0%,0%,0%);stroke-opacity:1;stroke-miterlimit:4;" d="M 24.499508 8.000243 C 24.499508 9.104369 23.604123 9.999754 22.499997 9.999754 C 21.395871 9.999754 20.500485 9.104369 20.500485 8.000243 C 20.500485 6.895019 21.395871 5.999633 22.499997 5.999633 C 23.604123 5.999633 24.499508 6.895019 24.499508 8.000243 Z M 24.499508 8.000243 " transform="matrix(17.77778,0,0,17.77778,0,0)"/>
<path style="fill-rule:nonzero;fill:rgb(100%,100%,100%);fill-opacity:1;stroke-width:1.5;stroke-linecap:butt;stroke-linejoin:round;stroke:rgb(0%,0%,0%);stroke-opacity:1;stroke-miterlimit:4;" d="M 32.999629 8.999999 C 32.999629 10.104125 32.104244 10.99951 31.000118 10.99951 C 29.894893 10.99951 28.999508 10.104125 28.999508 8.999999 C 28.999508 7.895873 29.894893 7.000487 31.000118 7.000487 C 32.104244 7.000487 32.999629 7.895873 32.999629 8.999999 Z M 32.999629 8.999999 " transform="matrix(17.77778,0,0,17.77778,0,0)"/>
<path style="fill-rule:nonzero;fill:rgb(100%,100%,100%);fill-opacity:1;stroke-width:1.5;stroke-linecap:butt;stroke-linejoin:round;stroke:rgb(0%,0%,0%);stroke-opacity:1;stroke-miterlimit:4;" d="M 40.999872 12.000365 C 40.999872 13.10449 40.104487 13.999876 39.000361 13.999876 C 37.895136 13.999876 36.999751 13.10449 36.999751 12.000365 C 36.999751 10.89514 37.895136 9.999754 39.000361 9.999754 C 40.104487 9.999754 40.999872 10.89514 40.999872 12.000365 Z M 40.999872 12.000365 " transform="matrix(17.77778,0,0,17.77778,0,0)"/>
</g>
</svg>
