<?xml version="1.0" encoding="UTF-8"?>
<svg xmlns="http://www.w3.org/2000/svg" xmlns:xlink="http://www.w3.org/1999/xlink" width="800px" height="800px" viewBox="0 0 800 800" version="1.1">
<g id="surface1">
<path style="fill-rule:nonzero;fill:rgb(0%,0%,0%);fill-opacity:1;stroke-width:1.5;stroke-linecap:butt;stroke-linejoin:round;stroke:rgb(0%,0%,0%);stroke-opacity:1;stroke-miterlimit:4;" d="M 9 26.000024 C 17.499902 24.499951 29.999927 24.499951 36 26.000024 L 38.500049 13.5 L 30.999902 25.000049 L 30.699976 10.899976 L 25.499927 24.499951 L 22.5 9.999976 L 19.500073 24.499951 L 14.300024 10.899976 L 14.000098 25.000049 L 6.499951 13.5 Z M 9 26.000024 " transform="matrix(17.777778,0,0,17.777778,0,0)"/>
<path style="fill-rule:nonzero;fill:rgb(0%,0%,0%);fill-opacity:1;stroke-width:1.5;stroke-linecap:round;stroke-linejoin:round;stroke:rgb(0%,0%,0%);stroke-opacity:1;stroke-miterlimit:4;" d="M 9 26.000024 C 9 27.999976 10.500073 27.999976 11.500049 29.999927 C 12.500024 31.5 12.500024 30.999902 11.999927 33.499951 C 10.500073 34.499927 10.999951 36 10.999951 36 C 9.500098 37.500073 10.999951 38.500049 10.999951 38.500049 C 17.499902 39.500024 27.500098 39.500024 34.000049 38.500049 C 34.000049 38.500049 35.499902 37.500073 34.000049 36 C 34.000049 36 34.499927 34.499927 33.000073 33.499951 C 32.499976 30.999902 32.499976 31.5 33.499951 29.999927 C 34.499927 27.999976 36 27.999976 36 26.000024 C 27.500098 24.499951 17.499902 24.499951 9 26.000024 Z M 9 26.000024 " transform="matrix(17.777778,0,0,17.777778,0,0)"/>
<path style="fill-rule:nonzero;fill:rgb(0%,0%,0%);fill-opacity:1;stroke-width:1.5;stroke-linecap:round;stroke-linejoin:round;stroke:rgb(0%,0%,0%);stroke-opacity:1;stroke-miterlimit:4;" d="M 11.500049 29.999927 C 15.000073 28.999951 29.999927 28.999951 33.499951 29.999927 " transform="matrix(17.777778,0,0,17.777778,0,0)"/>
<path style="fill-rule:nonzero;fill:rgb(0%,0%,0%);fill-opacity:1;stroke-width:1.5;stroke-linecap:round;stroke-linejoin:round;stroke:rgb(0%,0%,0%);stroke-opacity:1;stroke-miterlimit:4;" d="M 11.999927 33.499951 C 18 32.499976 27 32.499976 33.000073 33.499951 " transform="matrix(17.777778,0,0,17.777778,0,0)"/>
<path style="fill-rule:nonzero;fill:rgb(0%,0%,0%);fill-opacity:1;stroke-width:1.5;stroke-linecap:round;stroke-linejoin:round;stroke:rgb(0%,0%,0%);stroke-opacity:1;stroke-miterlimit:4;" d="M 8.000024 11.999927 C 8.000024 13.104492 7.104639 14.000098 6.000073 14.000098 C 4.895508 14.000098 3.999902 13.104492 3.999902 11.999927 C 3.999902 10.895361 4.895508 9.999976 6.000073 9.999976 C 7.104639 9.999976 8.000024 10.895361 8.000024 11.999927 Z M 8.000024 11.999927 " transform="matrix(17.777778,0,0,17.777778,0,0)"/>
<path style="fill-rule:nonzero;fill:rgb(0%,0%,0%);fill-opacity:1;stroke-width:1.5;stroke-linecap:round;stroke-linejoin:round;stroke:rgb(0%,0%,0%);stroke-opacity:1;stroke-miterlimit:4;" d="M 16.000049 9 C 16.000049 10.104565 15.104663 10.999951 14.000098 10.999951 C 12.895532 10.999951 11.999927 10.104565 11.999927 9 C 11.999927 7.895435 12.895532 7.000049 14.000098 7.000049 C 15.104663 7.000049 16.000049 7.895435 16.000049 9 Z M 16.000049 9 " transform="matrix(17.777778,0,0,17.777778,0,0)"/>
<path style="fill-rule:nonzero;fill:rgb(0%,0%,0%);fill-opacity:1;stroke-width:1.5;stroke-linecap:round;stroke-linejoin:round;stroke:rgb(0%,0%,0%);stroke-opacity:1;stroke-miterlimit:4;" d="M 24.499951 8.000024 C 24.499951 9.10459 23.604565 9.999976 22.5 9.999976 C 21.395435 9.999976 20.500049 9.10459 20.500049 8.000024 C 20.500049 6.895459 21.395435 6.000073 22.5 6.000073 C 23.604565 6.000073 24.499951 6.895459 24.499951 8.000024 Z M 24.499951 8.000024 " transform="matrix(17.777778,0,0,17.777778,0,0)"/>
<path style="fill-rule:nonzero;fill:rgb(0%,0%,0%);fill-opacity:1;stroke-width:1.5;stroke-linecap:round;stroke-linejoin:round;stroke:rgb(0%,0%,0%);stroke-opacity:1;stroke-miterlimit:4;" d="M 33.000073 9 C 33.000073 10.104565 32.104468 10.999951 30.999902 10.999951 C 29.895337 10.999951 28.999951 10.104565 28.999951 9 C 28.999951 7.895435 29.895337 7.000049 30.999902 7.000049 C 32.104468 7.000049 33.000073 7.895435 33.000073 9 Z M 33.000073 9 " transform="matrix(17.777778,0,0,17.777778,0,0)"/>
<path style="fill-rule:nonzero;fill:rgb(0%,0%,0%);fill-opacity:1;stroke-width:1.5;stroke-linecap:round;stroke-linejoin:round;stroke:rgb(0%,0%,0%);stroke-opacity:1;stroke-miterlimit:4;" d="M 41.000098 11.999927 C 41.000098 13.104492 40.104492 14.000098 38.999927 14.000098 C 37.895361 14.000098 36.999976 13.104492 36.999976 11.999927 C 36.999976 10.895361 37.895361 9.999976 38.999927 9.999976 C 40.104492 9.999976 41.000098 10.895361 41.000098 11.999927 Z M 41.000098 11.999927 " transform="matrix(17.777778,0,0,17.777778,0,0)"/>
<path style="fill:none;stroke-width:1.5;stroke-linecap:butt;stroke-linejoin:round;stroke:rgb(0%,0%,0%);stroke-opacity:1;stroke-miterlimit:4;" d="M 10.999951 38.500049 C 18.447803 41.091064 26.552197 41.091064 34.000049 38.500049 " transform="matrix(17.777778,0,0,17.777778,0,0)"/>
<path style="fill:none;stroke-width:1.5;stroke-linecap:round;stroke-linejoin:round;stroke:rgb(100%,100%,100%);stroke-opacity:1;stroke-miterlimit:4;" d="M 10.999951 28.999951 C 18.447803 26.408936 26.552197 26.408936 34.000049 28.999951 " transform="matrix(17.777778,0,0,17.777778,0,0)"/>
<path style="fill:none;stroke-width:1.5;stroke-linecap:round;stroke-linejoin:round;stroke:rgb(100%,100%,100%);stroke-opacity:1;stroke-miterlimit:4;" d="M 12.500024 31.5 L 32.499976 31.5 " transform="matrix(17.777778,0,0,17.777778,0,0)"/>
<path style="fill:none;stroke-width:1.5;stroke-linecap:round;stroke-linejoin:round;stroke:rgb(100%,100%,100%);stroke-opacity:1;stroke-miterlimit:4;" d="M 11.500049 34.499927 C 18.6427 36.864624 26.3573 36.864624 33.499951 34.499927 " transform="matrix(17.777778,0,0,17.777778,0,0)"/>
<path style="fill:none;stroke-width:1.5;stroke-linecap:round;stroke-linejoin:round;stroke:rgb(100%,100%,100%);stroke-opacity:1;stroke-miterlimit:4;" d="M 10.500073 37.500073 C 18.250049 40.328613 26.749951 40.328613 34.499927 37.500073 " transform="matrix(17.777778,0,0,17.777778,0,0)"/>
</g>
</svg>
