<?xml version="1.0" encoding="UTF-8"?>
<svg xmlns="http://www.w3.org/2000/svg" xmlns:xlink="http://www.w3.org/1999/xlink" width="800px" height="800px" viewBox="0 0 800 800" version="1.1">
<g id="surface1">
<path style="fill-rule:evenodd;fill:rgb(0%,0%,0%);fill-opacity:1;stroke-width:1.5;stroke-linecap:butt;stroke-linejoin:round;stroke:rgb(0%,0%,0%);stroke-opacity:1;stroke-miterlimit:4;" d="M 8.999999 39.000361 L 35.999995 39.000361 L 35.999995 35.999995 L 8.999999 35.999995 Z M 8.999999 39.000361 " transform="matrix(17.77778,0,0,17.77778,0,0)"/>
<path style="fill-rule:evenodd;fill:rgb(0%,0%,0%);fill-opacity:1;stroke-width:1.5;stroke-linecap:butt;stroke-linejoin:round;stroke:rgb(0%,0%,0%);stroke-opacity:1;stroke-miterlimit:4;" d="M 12.500242 31.999873 L 13.999876 29.500484 L 31.000118 29.500484 L 32.499751 31.999873 Z M 12.500242 31.999873 " transform="matrix(17.77778,0,0,17.77778,0,0)"/>
<path style="fill-rule:evenodd;fill:rgb(0%,0%,0%);fill-opacity:1;stroke-width:1.5;stroke-linecap:butt;stroke-linejoin:round;stroke:rgb(0%,0%,0%);stroke-opacity:1;stroke-miterlimit:4;" d="M 12.000365 35.999995 L 12.000365 31.999873 L 32.999629 31.999873 L 32.999629 35.999995 Z M 12.000365 35.999995 " transform="matrix(17.77778,0,0,17.77778,0,0)"/>
<path style="fill-rule:evenodd;fill:rgb(0%,0%,0%);fill-opacity:1;stroke-width:1.5;stroke-linecap:butt;stroke-linejoin:miter;stroke:rgb(0%,0%,0%);stroke-opacity:1;stroke-miterlimit:4;" d="M 13.999876 29.500484 L 13.999876 16.500364 L 31.000118 16.500364 L 31.000118 29.500484 Z M 13.999876 29.500484 " transform="matrix(17.77778,0,0,17.77778,0,0)"/>
<path style="fill-rule:evenodd;fill:rgb(0%,0%,0%);fill-opacity:1;stroke-width:1.5;stroke-linecap:butt;stroke-linejoin:round;stroke:rgb(0%,0%,0%);stroke-opacity:1;stroke-miterlimit:4;" d="M 13.999876 16.500364 L 10.99951 13.999876 L 34.000483 13.999876 L 31.000118 16.500364 Z M 13.999876 16.500364 " transform="matrix(17.77778,0,0,17.77778,0,0)"/>
<path style="fill-rule:evenodd;fill:rgb(0%,0%,0%);fill-opacity:1;stroke-width:1.5;stroke-linecap:butt;stroke-linejoin:round;stroke:rgb(0%,0%,0%);stroke-opacity:1;stroke-miterlimit:4;" d="M 10.99951 13.999876 L 10.99951 8.999999 L 14.999632 8.999999 L 14.999632 10.99951 L 19.999509 10.99951 L 19.999509 8.999999 L 25.000485 8.999999 L 25.000485 10.99951 L 30.000362 10.99951 L 30.000362 8.999999 L 34.000483 8.999999 L 34.000483 13.999876 Z M 10.99951 13.999876 " transform="matrix(17.77778,0,0,17.77778,0,0)"/>
<path style="fill:none;stroke-width:1;stroke-linecap:round;stroke-linejoin:miter;stroke:rgb(100%,100%,100%);stroke-opacity:1;stroke-miterlimit:4;" d="M 12.000365 35.500117 L 32.999629 35.500117 " transform="matrix(17.77778,0,0,17.77778,0,0)"/>
<path style="fill:none;stroke-width:1;stroke-linecap:round;stroke-linejoin:miter;stroke:rgb(100%,100%,100%);stroke-opacity:1;stroke-miterlimit:4;" d="M 13.00012 31.499996 L 31.999873 31.499996 " transform="matrix(17.77778,0,0,17.77778,0,0)"/>
<path style="fill:none;stroke-width:1;stroke-linecap:round;stroke-linejoin:miter;stroke:rgb(100%,100%,100%);stroke-opacity:1;stroke-miterlimit:4;" d="M 13.999876 29.500484 L 31.000118 29.500484 " transform="matrix(17.77778,0,0,17.77778,0,0)"/>
<path style="fill:none;stroke-width:1;stroke-linecap:round;stroke-linejoin:miter;stroke:rgb(100%,100%,100%);stroke-opacity:1;stroke-miterlimit:4;" d="M 13.999876 16.500364 L 31.000118 16.500364 " transform="matrix(17.77778,0,0,17.77778,0,0)"/>
<path style="fill:none;stroke-width:1;stroke-linecap:round;stroke-linejoin:miter;stroke:rgb(100%,100%,100%);stroke-opacity:1;stroke-miterlimit:4;" d="M 10.99951 13.999876 L 34.000483 13.999876 " transform="matrix(17.77778,0,0,17.77778,0,0)"/>
</g>
</svg>
