<?xml version="1.0" encoding="UTF-8"?>
<svg xmlns="http://www.w3.org/2000/svg" xmlns:xlink="http://www.w3.org/1999/xlink" width="800px" height="800px" viewBox="0 0 800 800" version="1.1">
<g id="surface1">
<path style="fill-rule:evenodd;fill:rgb(0%,0%,0%);fill-opacity:1;stroke-width:1.5;stroke-linecap:butt;stroke-linejoin:round;stroke:rgb(0%,0%,0%);stroke-opacity:1;stroke-miterlimit:4;" d="M 9 38.999927 L 36 38.999927 L 36 36 L 9 36 Z M 9 38.999927 " transform="matrix(17.777778,0,0,17.777778,0,0)"/>
<path style="fill-rule:evenodd;fill:rgb(0%,0%,0%);fill-opacity:1;stroke-width:1.5;stroke-linecap:butt;stroke-linejoin:round;stroke:rgb(0%,0%,0%);stroke-opacity:1;stroke-miterlimit:4;" d="M 12.500024 32.000098 L 14.000098 29.500049 L 30.999902 29.500049 L 32.499976 32.000098 Z M 12.500024 32.000098 " transform="matrix(17.777778,0,0,17.777778,0,0)"/>
<path style="fill-rule:evenodd;fill:rgb(0%,0%,0%);fill-opacity:1;stroke-width:1.5;stroke-linecap:butt;stroke-linejoin:round;stroke:rgb(0%,0%,0%);stroke-opacity:1;stroke-miterlimit:4;" d="M 11.999927 36 L 11.999927 32.000098 L 33.000073 32.000098 L 33.000073 36 Z M 11.999927 36 " transform="matrix(17.777778,0,0,17.777778,0,0)"/>
<path style="fill-rule:evenodd;fill:rgb(0%,0%,0%);fill-opacity:1;stroke-width:1.5;stroke-linecap:butt;stroke-linejoin:miter;stroke:rgb(0%,0%,0%);stroke-opacity:1;stroke-miterlimit:4;" d="M 14.000098 29.500049 L 14.000098 16.499927 L 30.999902 16.499927 L 30.999902 29.500049 Z M 14.000098 29.500049 " transform="matrix(17.777778,0,0,17.777778,0,0)"/>
<path style="fill-rule:evenodd;fill:rgb(0%,0%,0%);fill-opacity:1;stroke-width:1.5;stroke-linecap:butt;stroke-linejoin:round;stroke:rgb(0%,0%,0%);stroke-opacity:1;stroke-miterlimit:4;" d="M 14.000098 16.499927 L 10.999951 14.000098 L 34.000049 14.000098 L 30.999902 16.499927 Z M 14.000098 16.499927 " transform="matrix(17.777778,0,0,17.777778,0,0)"/>
<path style="fill-rule:evenodd;fill:rgb(0%,0%,0%);fill-opacity:1;stroke-width:1.5;stroke-linecap:butt;stroke-linejoin:round;stroke:rgb(0%,0%,0%);stroke-opacity:1;stroke-miterlimit:4;" d="M 10.999951 14.000098 L 10.999951 9 L 15.000073 9 L 15.000073 10.999951 L 19.999951 10.999951 L 19.999951 9 L 25.000049 9 L 25.000049 10.999951 L 29.999927 10.999951 L 29.999927 9 L 34.000049 9 L 34.000049 14.000098 Z M 10.999951 14.000098 " transform="matrix(17.777778,0,0,17.777778,0,0)"/>
<path style="fill:none;stroke-width:1;stroke-linecap:round;stroke-linejoin:miter;stroke:rgb(100%,100%,100%);stroke-opacity:1;stroke-miterlimit:4;" d="M 11.999927 35.499902 L 33.000073 35.499902 " transform="matrix(17.777778,0,0,17.777778,0,0)"/>
<path style="fill:none;stroke-width:1;stroke-linecap:round;stroke-linejoin:miter;stroke:rgb(100%,100%,100%);stroke-opacity:1;stroke-miterlimit:4;" d="M 12.999902 31.5 L 32.000098 31.5 " transform="matrix(17.777778,0,0,17.777778,0,0)"/>
<path style="fill:none;stroke-width:1;stroke-linecap:round;stroke-linejoin:miter;stroke:rgb(100%,100%,100%);stroke-opacity:1;stroke-miterlimit:4;" d="M 14.000098 29.500049 L 30.999902 29.500049 " transform="matrix(17.777778,0,0,17.777778,0,0)"/>
<path style="fill:none;stroke-width:1;stroke-linecap:round;stroke-linejoin:miter;stroke:rgb(100%,100%,100%);stroke-opacity:1;stroke-miterlimit:4;" d="M 14.000098 16.499927 L 30.999902 16.499927 " transform="matrix(17.777778,0,0,17.777778,0,0)"/>
<path style="fill:none;stroke-width:1;stroke-linecap:round;stroke-linejoin:miter;stroke:rgb(100%,100%,100%);stroke-opacity:1;stroke-miterlimit:4;" d="M 10.999951 14.000098 L 34.000049 14.000098 " transform="matrix(17.777778,0,0,17.777778,0,0)"/>
</g>
</svg>
